<svg id="Capa_1" enable-background="new 0 0 512 512" height="512" viewBox="0 0 512 512" width="512" xmlns="http://www.w3.org/2000/svg"><g><path d="m399.536 316.894c-11.781 0-22.92 4.047-32.044 11.529-9.121-7.481-20.261-11.529-32.045-11.529-19.387 0-36.348 11.167-45.398 27.721-.339-.004-.678-.006-1.016-.006h-35.833v-20.141c28.778-7.333 50.635-21.087 65.048-40.953 13.61-18.76 20.536-42.962 20.586-71.935l9.441-10.838c1.003-1.15 1.729-2.515 2.122-3.989l23.73-88.902c.098-.366.174-.738.229-1.113 2.483-16.756-11.077-48.449-30.229-70.648-14.202-16.464-38.123-36.09-71.422-36.09h-90.4c-36.94 0-55.484 17.31-64.535 31.831-6.2 9.947-8.782 19.932-9.848 26.033-13.81 7.783-49.605 30.931-45.346 59.671.108.735.299 1.456.568 2.149l34.905 90.023v1.556c0 29.115 6.927 53.423 20.587 72.252 14.413 19.866 36.271 33.619 65.052 40.953v20.141h-35.837c-48.382 0-87.744 39.362-87.744 87.744v69.647c0 5.523 4.478 10 10 10h296.67c5.522 0 10-4.477 10-10v-38.28c2.17-1.2 4.455-2.45 5.599-3.037 44.027-22.634 69.517-44.385 69.517-88.583 0-30.441-23.488-55.206-52.357-55.206zm-277.863-243.719c3.229-1.624 5.33-4.864 5.496-8.474.005-.11.696-11.257 7.573-22.291 9.269-14.87 25.272-22.41 47.563-22.41h90.4c25.728 0 44.807 15.854 56.28 29.155 18.509 21.455 26.384 46.227 25.643 54.198l-15.793 59.166v-25.159c0-5.523-4.478-10-10-10-16.937 0-32.46-8.499-41.524-22.733l-6.037-9.481c-1.603-2.515-4.243-4.185-7.202-4.553-.412-.051-.823-.076-1.233-.076-2.536 0-4.996.965-6.863 2.727l-21.959 20.722c-9.152 8.637-21.125 13.394-33.711 13.394h-102.256c-5.522 0-10 4.477-10 10v17.024l-15.791-40.727c-1.006-15.006 25.907-33.657 39.414-40.482zm-3.623 138.088v-63.903h92.255c17.711 0 34.558-6.694 47.438-18.848l13.163-12.421c10.977 16.782 28.384 27.751 47.93 30.558v64.615c0 53.493-25.398 84.715-77.647 95.448-4.649.955-7.987 5.048-7.987 9.795v38.103c0 5.523 4.478 10 10 10h6.094v.425c0 17.011-13.84 30.851-30.852 30.851-17.011 0-30.851-13.84-30.851-30.851v-.425h6.097c5.522 0 10-4.477 10-10v-38.103c0-4.747-3.338-8.84-7.987-9.795-52.254-10.735-77.653-41.956-77.653-95.449zm-37.943 280.737v-59.646c0-37.354 30.39-67.744 67.744-67.744h19.74v.425c0 28.04 22.812 50.851 50.851 50.851 28.04 0 50.852-22.812 50.852-50.851v-.425h14.273c-.317 2.45-.48 4.95-.48 7.49 0 44.2 25.491 65.95 69.53 88.588.889.456 2.475 1.318 4.16 2.244v29.068zm293.133-49.108c-1.306.669-3.614 1.93-5.749 3.109-2.133-1.179-4.438-2.438-5.74-3.105-44.409-22.829-58.664-40.032-58.664-70.796 0-19.413 14.517-35.206 32.36-35.206 8.643 0 16.77 3.669 22.891 10.34 2.35 2.554 5.686 4.019 9.154 4.019h.009c3.471-.002 6.807-1.471 9.147-4.024 6.118-6.664 14.247-10.334 22.888-10.334 17.842 0 32.356 15.793 32.356 35.206.001 30.763-14.253 47.966-58.652 70.791z"/><g><path d="m244.577 265.04c3.903-3.907 3.9-10.239-.006-14.142-3.907-3.905-10.239-3.901-14.143.005-3.086 3.089-7.188 4.79-11.553 4.79s-8.467-1.701-11.553-4.79c-3.904-3.907-10.236-3.91-14.143-.005-3.906 3.903-3.909 10.235-.006 14.142 6.864 6.87 15.992 10.653 25.701 10.653s18.838-3.784 25.703-10.653z"/><g><path d="m168.875 216.832c-5.522 0-10-4.477-10-10v-15.832c0-5.523 4.478-10 10-10s10 4.477 10 10v15.832c0 5.523-4.477 10-10 10z"/><path d="m268.875 216.832c-5.522 0-10-4.477-10-10v-15.832c0-5.523 4.478-10 10-10s10 4.477 10 10v15.832c0 5.523-4.477 10-10 10z"/></g></g></g></svg>