<svg id="Capa_1" enable-background="new 0 0 512 512" height="512" viewBox="0 0 512 512" width="512" xmlns="http://www.w3.org/2000/svg"><g><path d="m414.007 336.818c-7.681 0-15.089 1.719-21.844 4.986v-174.514c0-92.244-74.962-167.29-167.101-167.29h-12.372c-92.141 0-167.102 75.046-167.102 167.29v183.042l.003 1.136c.156 23.472 8.241 46.179 22.864 64.477-5.081 11.096-7.915 23.428-7.915 36.409v49.646c0 5.523 4.478 10 10 10h296.671c5.522 0 10-4.477 10-10v-15.659c1.472.786 3.092 1.18 4.712 1.18 1.687 0 3.372-.426 4.892-1.278 2.079-1.166 7.928-4.424 10.007-5.49 44.074-22.659 69.591-44.433 69.591-88.677-.001-30.47-23.51-55.258-52.406-55.258zm-348.416 14.528-.003-184.056c0-81.216 65.989-147.29 147.101-147.29h12.372c81.112 0 147.102 66.074 147.102 147.29v174.748c-6.882-3.419-14.458-5.22-22.32-5.22-19.873 0-37.198 11.722-46.082 28.953-4.709-.772-9.493-1.161-14.294-1.161h-35.834v-20.141c28.778-7.333 50.635-21.087 65.048-40.953 13.661-18.829 20.588-43.139 20.588-72.252v-75.2c0-5.523-4.478-10-10-10h-22.564c-6.925 0-13.311-3.473-17.08-9.289l-14.675-22.644c-1.843-2.844-5.002-4.562-8.392-4.562s-6.549 1.717-8.392 4.562l-14.675 22.644c-3.77 5.817-10.155 9.29-17.081 9.29h-117.928c-5.522 0-10 4.477-10 10v75.2c0 29.114 6.927 53.423 20.587 72.252 14.413 19.866 36.271 33.619 65.052 40.953v20.141h-35.837c-27.681 0-52.409 12.885-68.502 32.971-9.103-13.65-14.081-29.714-14.191-46.236zm122.433 33.263h6.097c5.522 0 10-4.477 10-10v-38.103c0-4.747-3.338-8.84-7.987-9.795-52.252-10.734-77.651-41.956-77.651-95.448v-65.2h107.927c13.733 0 26.393-6.883 33.864-18.413l6.283-9.694 6.283 9.695c7.472 11.529 20.131 18.412 33.863 18.412h12.564v65.2c0 53.493-25.398 84.714-77.648 95.448-4.649.955-7.987 5.048-7.987 9.795v38.103c0 5.523 4.478 10 10 10h6.094v.425c0 17.011-13.84 30.851-30.852 30.851-17.011 0-30.851-13.84-30.851-30.851v-.425zm-107.484 107.391v-39.646c0-37.354 30.39-67.744 67.744-67.744h19.74v.425c0 28.04 22.812 50.851 50.851 50.851 28.04 0 50.852-22.812 50.852-50.851v-.425h19.74c2.809 0 5.608.172 8.379.513-.272 2.278-.413 4.599-.413 6.953 0 40.847 21.749 62.541 59.778 83.464v16.46zm307.147-29.039c-1.309.671-3.623 1.935-5.763 3.116-2.137-1.181-4.447-2.443-5.751-3.111-44.467-22.858-58.74-40.083-58.74-70.89 0-19.441 14.539-35.258 32.41-35.258 8.656 0 16.795 3.675 22.928 10.358 2.35 2.553 5.686 4.017 9.154 4.017h.006c3.47-.002 6.806-1.469 9.154-4.026 6.126-6.674 14.267-10.349 22.922-10.349 17.868 0 32.405 15.817 32.405 35.258 0 30.806-14.272 48.031-58.725 70.885z"/><g><path d="m244.577 285.04c3.903-3.907 3.9-10.239-.006-14.142-3.907-3.905-10.239-3.901-14.143.005-3.086 3.089-7.188 4.79-11.553 4.79s-8.467-1.701-11.553-4.79c-3.904-3.907-10.236-3.91-14.143-.005-3.906 3.903-3.909 10.235-.006 14.142 6.864 6.87 15.992 10.653 25.701 10.653s18.838-3.784 25.703-10.653z"/><g><path d="m168.875 236.832c-5.522 0-10-4.477-10-10v-15.832c0-5.523 4.478-10 10-10s10 4.477 10 10v15.832c0 5.523-4.477 10-10 10z"/><path d="m268.875 236.832c-5.522 0-10-4.477-10-10v-15.832c0-5.523 4.478-10 10-10s10 4.477 10 10v15.832c0 5.523-4.477 10-10 10z"/></g></g></g></svg>