<svg id="Capa_1" enable-background="new 0 0 512 512" height="512" viewBox="0 0 512 512" width="512" xmlns="http://www.w3.org/2000/svg"><g><path d="m361.956 41.957c-40.075 0-77.628 15.674-105.951 44.181-28.316-28.505-65.868-44.181-105.946-44.181-82.743 0-150.059 67.876-150.059 151.307 0 60.258 17.082 107.413 53.757 148.398 32.961 36.835 83.475 70.667 163.792 109.7 8.619 4.18 33.515 17.382 33.765 17.515 1.466.777 3.076 1.166 4.687 1.166 1.609 0 3.22-.388 4.685-1.165.25-.133 25.161-13.335 33.788-17.519 80.305-39.03 130.814-72.862 163.772-109.697 36.673-40.987 53.754-88.141 53.754-148.398 0-83.431-67.31-151.307-150.044-151.307zm-76.219 391.41c-6.669 3.235-21.964 11.264-29.736 15.364-7.769-4.1-23.053-12.128-29.717-15.36-154.231-74.954-206.284-135.541-206.284-240.107 0-72.403 58.344-131.307 130.059-131.307 35.217 0 68.19 13.988 92.853 39.392 3.394 3.49 8.166 5.491 13.096 5.491h.008c4.93-.002 9.701-2.006 13.087-5.496 24.663-25.399 57.64-39.387 92.854-39.387 71.705 0 130.043 58.904 130.043 131.307 0 104.564-52.05 165.151-206.263 240.103z"/><path d="m440.342 176.56v-32.79c0-11.454-9.318-20.772-20.772-20.772h-32.791c-2.255-15.27-15.447-27.025-31.334-27.025-15.888 0-29.08 11.755-31.335 27.025h-23.389c-11.454 0-20.772 9.318-20.772 20.772v42.45c0 5.523 4.478 10 10 10h5.351c6.438 0 11.675 5.237 11.675 11.675s-5.237 11.675-11.675 11.675h-5.351c-5.522 0-10 4.477-10 10v42.45c0 11.454 9.318 20.772 20.772 20.772h23.389c2.255 15.27 15.447 27.025 31.335 27.025 15.887 0 29.079-11.755 31.334-27.025h32.791c11.454 0 20.772-9.318 20.772-20.772v-32.79c15.27-2.255 27.025-15.448 27.025-31.335s-11.756-29.08-27.025-31.335zm-4.65 43.01h-5.351c-5.522 0-10 4.477-10 10v42.45c0 .426-.347.772-.772.772h-42.45c-5.522 0-10 4.477-10 10v5.35c0 6.438-5.237 11.675-11.675 11.675s-11.676-5.237-11.676-11.675v-5.35c0-5.523-4.478-10-10-10h-33.048c-.426 0-.772-.347-.772-.772v-32.79c15.27-2.255 27.025-15.448 27.025-31.335s-11.756-29.08-27.025-31.335v-32.79c0-.426.347-.772.772-.772h33.048c5.522 0 10-4.477 10-10v-5.35c0-6.438 5.237-11.675 11.676-11.675 6.438 0 11.675 5.237 11.675 11.675v5.35c0 5.523 4.478 10 10 10h42.45c.426 0 .772.347.772.772v42.45c0 5.523 4.478 10 10 10h5.351c6.438 0 11.675 5.237 11.675 11.675s-5.237 11.675-11.675 11.675z"/></g></svg>