<svg id="Capa_1" enable-background="new 0 0 512 512" height="512" viewBox="0 0 512 512" width="512" xmlns="http://www.w3.org/2000/svg"><g><path d="m240.664 149.26c2.167 1.109 8.278 4.51 10.45 5.727 1.518.851 3.202 1.275 4.887 1.275 1.684 0 3.367-.425 4.885-1.274 2.173-1.217 8.288-4.617 10.464-5.731 45.874-23.545 72.433-46.159 72.433-92.073 0-31.53-24.35-57.183-54.28-57.183-12.334 0-23.991 4.275-33.5 12.172-9.509-7.898-21.164-12.173-33.501-12.173-29.933 0-54.284 25.652-54.284 57.183 0 45.915 26.561 68.529 72.446 92.077zm-18.162-129.26c9.167 0 17.783 3.883 24.271 10.94 2.369 2.572 5.732 4.047 9.229 4.046h.007c3.498-.002 6.861-1.479 9.226-4.053 6.483-7.05 15.101-10.933 24.267-10.933 18.902 0 34.28 16.68 34.28 37.183 0 32.31-14.96 50.359-61.557 74.276-1.406.72-3.934 2.099-6.223 3.362-2.288-1.263-4.811-2.641-6.213-3.358-46.609-23.92-61.57-41.97-61.57-74.28-.001-20.503 15.379-37.183 34.283-37.183z"/><path d="m407.101 196.369h-74.643c-5.523 0-10 4.478-10 10v145.149c0 36.473-29.813 66.145-66.458 66.145s-66.458-29.672-66.458-66.145v-145.149c0-5.522-4.477-10-10-10h-74.643c-5.523 0-10 4.478-10 10v145.149c0 88.491 72.269 160.482 161.101 160.482s161.101-71.991 161.101-160.481v-145.15c0-5.522-4.477-10-10-10zm-64.643 20h54.643v42.171h-54.643zm-227.559 0h54.643v42.171h-54.643zm0 135.15v-72.979h54.643v72.979c0 44.132 33.477 80.618 76.458 85.572v54.561c-73.155-5.126-131.101-66.019-131.101-140.133zm282.202 0c0 74.114-57.946 135.008-131.101 140.133v-54.561c42.981-4.954 76.458-41.44 76.458-85.572v-72.979h54.643z"/><path d="m339.928 113.798v45.551c0 5.522 4.477 10 10 10s10-4.478 10-10v-45.551c0-5.522-4.477-10-10-10s-10 4.477-10 10z"/><path d="m389.632 182.002c5.523 0 10-4.478 10-10v-35.429c0-5.522-4.477-10-10-10s-10 4.478-10 10v35.429c0 5.522 4.477 10 10 10z"/><path d="m162.072 169.349c5.523 0 10-4.478 10-10v-45.551c0-5.522-4.477-10-10-10s-10 4.478-10 10v45.551c0 5.522 4.477 10 10 10z"/><path d="m122.368 182.002c5.523 0 10-4.478 10-10v-35.429c0-5.522-4.477-10-10-10s-10 4.478-10 10v35.429c0 5.522 4.477 10 10 10z"/></g></svg>